<svg viewBox="0 0 300 500" xmlns="http://www.w3.org/2000/svg">
  <!-- Java Cup Logo (Top portion) -->
  <g transform="translate(0, 0) scale(0.3)">
    <path d="M278.9 908s-44.8 26.1 32 34.9c93 10.6 140.6 9.1 243.1-10.3 0 0 27 16.9 64.7 31.5-230 98.6-520.4-5.6-339.8-56.1z" fill="#F8981D"/>
    <path d="M250.8 779.5s-50.3 37.2 26.5 45.2c99.4 10.3 177.9 11.1 313.7-15 0 0 18.7 19 48.3 29.5-277.8 81.2-587.3 6.3-388.5-59.7z" fill="#F8981D"/>
    <path d="M487.6 561.4c56.7 65.2-14.9 123.9-14.9 123.9s143.8-74.2 77.8-167.2c-61.7-86.7-109-129.7 147.1-278.2 0-.1-402 100.3-210 321.5z" fill="#F8981D"/>
    <path d="M791.6 1003.1s33.2 27.4-36.6 48.5c-132.7 40.2-552.2 52.3-668.8 1.6-41.9-18.2 36.7-43.5 61.4-48.8 25.8-5.6 40.5-4.6 40.5-4.6-46.6-32.8-301.1 64.4-129.3 92.3 468.7 76 854.3-34.1 732.8-89z" fill="#F8981D"/>
    <path d="M300.5 646.3s-213.4 50.7-75.6 69.1c58.2 7.8 174.2 6 282.3-3.1 88.3-7.4 177-23.3 177-23.3s-31.1 13.4-53.7 28.7c-216.7 57-635.4 30.5-514.8-27.8 101.9-49.2 184.8-43.6 184.8-43.6z" fill="#F8981D"/>
    <path d="M683.3 860.3c220.3-114.4 118.4-224.4 47.3-209.6-17.4 3.6-25.2 6.8-25.2 6.8s6.5-10.1 18.8-14.5c140.7-49.4 248.8 145.8-45.4 223.2.1-.2 3.5-3.2 4.5-5.9z" fill="#F8981D"/>
    <path d="M550.5 0s122 122.1-115.7 309.7c-190.6 150.6-43.5 236.4-.1 334.5-111.3-100.4-192.9-188.8-138.2-271 80.4-120.8 303.2-179.4 254-373.2z" fill="#F8981D"/>
  </g>
  
  <!-- JEE Text (Clearly below the Java logo) -->
  <text x="150" y="430" font-family="Arial, sans-serif" font-size="90" font-weight="bold" text-anchor="middle" fill="#5582A0">JEE</text>
</svg>